# xmcd
#
# Track frame offsets:
#	150
#	12961
#	25550
#	39609
#	54291
#	66600
#	77001
#	95363
#	110974
#	128409
#	142421
#
# Disc length: 2083 seconds
# Revision: 0
# Processed by: cddbd v1.5.2PL0 Copyright (c) Steve Scherf et al.
# Submitted via: dBpowerAMP V12.0
#
DISCID=9408210b
DTITLE=The Broken Heartbreakers - The Broken Heartbreakers
DYEAR=2007
DGENRE=Folk Pop
TTITLE0=Pretty Thing
TTITLE1=Don't Even Think About Leaving
TTITLE2=Angela
TTITLE3=Come On Home
TTITLE4=August Mourning
TTITLE5=Intermission
TTITLE6=Sweet Marie
TTITLE7=When You're Not Around
TTITLE8=Long Is The Night
TTITLE9=Angels Are Calling On High
TTITLE10=The New Yeah
EXTD=
EXTT0=
EXTT1=
EXTT2=
EXTT3=
EXTT4=
EXTT5=
EXTT6=
EXTT7=
EXTT8=
EXTT9=
EXTT10=
PLAYORDER=
